<?xml version="1.0" standalone="no"?>
<!DOCTYPE svg PUBLIC "-//W3C//DTD SVG 20010904//EN"
 "http://www.w3.org/TR/2001/REC-SVG-20010904/DTD/svg10.dtd">
<svg version="1.0" xmlns="http://www.w3.org/2000/svg"
 width="512.000000pt" height="512.000000pt" viewBox="0 0 512.000000 512.000000"
 preserveAspectRatio="xMidYMid meet">

<g transform="translate(0.000000,512.000000) scale(0.100000,-0.100000)"
fill="#000000" stroke="none">
<path d="M2425 4774 c-123 -20 -274 -83 -380 -159 -139 -99 -259 -262 -316
-428 -46 -136 -62 -321 -38 -453 25 -141 115 -360 239 -579 41 -71 87 -155
102 -185 34 -64 294 -454 370 -554 46 -61 59 -71 103 -84 41 -12 59 -12 102
-1 29 6 61 21 71 33 11 12 73 98 138 191 322 460 557 908 608 1157 42 202 1
448 -104 633 -53 91 -160 209 -245 270 -75 54 -206 117 -290 140 -60 16 -298
29 -360 19z m263 -409 c204 -48 376 -229 413 -434 24 -135 -34 -286 -155 -407
-219 -220 -552 -220 -770 -2 -123 123 -181 273 -157 409 37 202 208 385 409
433 76 19 183 19 260 1z"/>
<path d="M2524 4228 c-32 -15 -44 -51 -44 -134 l0 -75 -75 41 c-60 33 -81 40
-105 35 -52 -11 -78 -77 -47 -119 7 -9 44 -35 81 -56 l69 -38 -39 -24 c-21
-14 -53 -32 -71 -42 -52 -27 -69 -79 -38 -123 28 -41 67 -39 150 7 l75 41 0
-75 c0 -88 12 -120 51 -137 37 -15 82 2 98 37 6 14 11 59 11 100 l0 75 75 -41
c60 -33 81 -40 105 -35 51 11 75 68 50 115 -6 11 -39 35 -75 55 -36 20 -65 40
-65 45 0 5 29 25 65 45 36 20 69 44 75 55 25 47 1 104 -50 115 -24 5 -45 -2
-105 -35 l-75 -41 0 75 c0 85 -12 119 -47 135 -29 13 -41 13 -69 -1z"/>
<path d="M905 1895 c-16 -15 -25 -36 -25 -55 0 -19 9 -40 25 -55 15 -16 36
-25 55 -25 19 0 40 9 55 25 16 15 25 36 25 55 0 19 -9 40 -25 55 -15 16 -36
25 -55 25 -19 0 -40 -9 -55 -25z"/>
<path d="M3945 1735 c-50 -49 -15 -135 55 -135 41 0 80 39 80 80 0 41 -39 80
-80 80 -19 0 -40 -9 -55 -25z"/>
<path d="M2505 1255 c-16 -15 -25 -36 -25 -55 0 -19 9 -40 25 -55 49 -50 135
-15 135 55 0 41 -39 80 -80 80 -19 0 -40 -9 -55 -25z"/>
<path d="M392 620 c-48 -30 -72 -75 -72 -140 0 -65 24 -110 72 -140 31 -19 51
-20 385 -20 237 0 360 4 376 11 39 18 47 50 47 184 l0 125 -387 0 c-370 0
-390 -1 -421 -20z"/>
<path d="M3920 515 c0 -134 8 -166 47 -184 16 -7 139 -11 376 -11 334 0 354 1
385 20 48 30 72 75 72 140 0 65 -24 110 -72 140 -31 19 -51 20 -420 20 l-388
0 0 -125z"/>
</g>
</svg>
